<svg width="168" height="50" viewBox="0 0 168 50" fill="none" xmlns="http://www.w3.org/2000/svg">
<path fill-rule="evenodd" clip-rule="evenodd" d="M25.756 26.0809H30.4261V30.5741H25.756V26.0809ZM19.4753 26.0809H24.1454V30.5741H19.4753V26.0809ZM25.756 20.3179H30.4261V24.8111H25.756V20.3179ZM19.4753 20.3179H24.1454V24.8111H19.4753V20.3179ZM1.68112 26.1895C3.44204 37.0298 13.1896 45.3239 24.9509 45.3239C36.7123 45.3239 46.4593 37.0298 48.2207 26.1895H44.0889V30.4384H45.3583V33.5399L24.9514 44.8701L4.54447 33.5399V30.4384H5.81383V26.1895H1.68112ZM48.23 19.1896C46.4931 8.32214 36.7322 0 24.9509 0C13.1697 0 3.40875 8.32214 1.67188 19.1896L4.65129 20.8447L7.0832 19.4939V33.418L11.4554 35.8468V17.2031L24.9505 9.70671L38.4455 17.2031V35.8468L42.8177 33.418V19.4939L45.2496 20.8447L48.23 19.1896Z" fill="#F68A0A"/>
<path d="M24.1456 20.3184H19.4756V24.8116H24.1456V20.3184Z" fill="#F68A0A"/>
<path d="M24.1456 26.0811H19.4756V30.5742H24.1456V26.0811Z" fill="#F68A0A"/>
<path fill-rule="evenodd" clip-rule="evenodd" d="M49.901 36.1529L24.9507 50L0 36.1529V26.1895H5.81271V30.4388H4.54335V33.5399L24.9507 44.8701L45.3576 33.5399V30.4388H44.0883V26.1895H49.901V36.1529Z" fill="#F68A0A"/>
<path d="M30.4259 20.3184H25.7559V24.8116H30.4259V20.3184Z" fill="#F68A0A"/>
<path d="M30.4259 26.0811H25.7559V30.5742H30.4259V26.0811Z" fill="#F68A0A"/>
<path fill-rule="evenodd" clip-rule="evenodd" d="M24.9506 9.70596L38.4456 17.2023V35.8465L42.8179 33.4177V19.4936L45.2498 20.8444L49.5624 18.449L24.9506 4.65039L11.4473 11.8789V8.85083L6.97886 11.333V14.7602L0.338867 18.449L4.651 20.8444L7.08291 19.4936V33.4177L11.4552 35.8465V17.2023L24.9506 9.70596Z" fill="white"/>
<path d="M49.064 41.667L34.0986 50.0003H48.2764L52.2146 46.667L168 41.667H49.064Z" fill="#F68A0A"/>
<path d="M54.8906 37.2877V11.0802H61.1361V21.5703H64.2408L69.1144 11.0802H75.7209L69.2227 24.2546L76.0097 37.2877H69.4032L64.2769 27.0449H61.1361V37.2877H54.8906Z" fill="white"/>
<path d="M88.7717 37.4997C86.9185 37.4997 85.2819 37.3231 83.862 36.9699C82.466 36.6167 81.2867 35.9691 80.3241 35.0273C79.3854 34.0854 78.6754 32.7432 78.1941 31.0008C77.7368 29.2583 77.5082 26.9861 77.5082 24.184C77.5082 21.4055 77.7488 19.145 78.2302 17.4025C78.7115 15.6365 79.4215 14.2826 80.3602 13.3407C81.2988 12.3989 82.466 11.7513 83.862 11.3981C85.2819 11.0214 86.9185 10.833 88.7717 10.833C90.6489 10.833 92.2855 11.0214 93.6814 11.3981C95.1014 11.7513 96.2807 12.3989 97.2193 13.3407C98.1579 14.2826 98.8559 15.6365 99.3132 17.4025C99.7945 19.145 100.035 21.4055 100.035 24.184C100.035 26.9861 99.7945 29.2583 99.3132 31.0008C98.8559 32.7432 98.1459 34.0854 97.1832 35.0273C96.2446 35.9691 95.0773 36.6167 93.6814 36.9699C92.2855 37.3231 90.6489 37.4997 88.7717 37.4997ZM88.7717 32.0251C89.7584 32.0251 90.5767 31.9191 91.2266 31.7072C91.8764 31.4717 92.3818 31.0832 92.7428 30.5416C93.1279 29.9765 93.3926 29.1877 93.537 28.1752C93.7055 27.1391 93.7897 25.8087 93.7897 24.184C93.7897 22.5122 93.7055 21.1582 93.537 20.1222C93.3926 19.0861 93.1279 18.2973 92.7428 17.7557C92.3818 17.1906 91.8764 16.8139 91.2266 16.6255C90.5767 16.4136 89.7584 16.3076 88.7717 16.3076C87.809 16.3076 87.0027 16.4136 86.3529 16.6255C85.7031 16.8139 85.1857 17.1906 84.8006 17.7557C84.4396 18.2973 84.1748 19.0861 84.0064 20.1222C83.8379 21.1582 83.7536 22.5122 83.7536 24.184C83.7536 25.8087 83.8258 27.1391 83.9703 28.1752C84.1387 29.1877 84.4035 29.9765 84.7645 30.5416C85.1496 31.0832 85.667 31.4717 86.3168 31.7072C86.9666 31.9191 87.7849 32.0251 88.7717 32.0251Z" fill="white"/>
<path d="M108.924 37.2877V16.5549H101.884V11.0802H122.173V16.5549H115.133V37.2877H108.924Z" fill="white"/>
<path d="M121.305 37.2877L129.463 11.0802H137.261L145.42 37.2877H138.958L137.586 32.5195H129.066L127.731 37.2877H121.305ZM130.51 27.0449H136.142L133.326 16.3076L130.51 27.0449Z" fill="white"/>
<path d="M147.963 37.2877V11.0802H159.227C160.358 11.0802 161.393 11.2215 162.332 11.5041C163.294 11.7631 164.125 12.2223 164.823 12.8816C165.545 13.5173 166.098 14.3886 166.483 15.4953C166.892 16.602 167.097 18.003 167.097 19.6983C167.097 20.8521 166.989 21.8411 166.772 22.6652C166.555 23.4658 166.267 24.1487 165.906 24.7138C165.545 25.2554 165.123 25.7028 164.642 26.056C164.185 26.4092 163.704 26.7153 163.198 26.9743L168 37.2877H161.646L157.639 27.9632C157.398 27.9632 157.121 27.9632 156.808 27.9632C156.519 27.9397 156.231 27.9279 155.942 27.9279C155.653 27.9279 155.352 27.9279 155.039 27.9279C154.75 27.9279 154.474 27.9279 154.209 27.9279V37.2877H147.963ZM154.209 23.0891H158.108C158.541 23.0891 158.926 23.042 159.263 22.9478C159.6 22.8301 159.889 22.6417 160.13 22.3827C160.37 22.1001 160.551 21.7469 160.671 21.3231C160.791 20.8992 160.852 20.3694 160.852 19.7337C160.852 19.0979 160.791 18.5799 160.671 18.1796C160.551 17.7557 160.37 17.4379 160.13 17.2259C159.889 16.9905 159.6 16.8256 159.263 16.7315C158.926 16.6137 158.541 16.5549 158.108 16.5549H154.209V23.0891Z" fill="white"/>
</svg>
