<svg width="202" height="60" viewBox="0 0 202 60" fill="none" xmlns="http://www.w3.org/2000/svg">
<path fill-rule="evenodd" clip-rule="evenodd" d="M30.9681 31.2971H36.5833V36.6889H30.9681V31.2971ZM23.4163 31.2971H29.0315V36.6889H23.4163V31.2971ZM30.9681 24.3815H36.5833V29.7734H30.9681V24.3815ZM23.4163 24.3815H29.0315V29.7734H23.4163V24.3815ZM2.02088 31.4274C4.13818 44.4358 15.8584 54.3887 30.0001 54.3887C44.1417 54.3887 55.8614 44.4358 57.9792 31.4274H53.0112V36.5261H54.5375V40.2479L30.0006 53.8442L5.46372 40.2479V36.5261H6.98998V31.4274H2.02088ZM57.9903 23.0276C55.902 9.98657 44.1656 0 30.0001 0C15.8345 0 4.09815 9.98657 2.00977 23.0276L5.59216 25.0137L8.51624 23.3927V40.1016L13.7733 43.0162V20.6437L29.9995 11.6481L46.2256 20.6437V43.0162L51.4827 40.1016V23.3927L54.4068 25.0137L57.9903 23.0276Z" fill="#F68A0A"/>
<path d="M29.0322 24.3815H23.417V29.7733H29.0322V24.3815Z" fill="#F68A0A"/>
<path d="M29.0322 31.2971H23.417V36.689H29.0322V31.2971Z" fill="#F68A0A"/>
<path fill-rule="evenodd" clip-rule="evenodd" d="M60 43.3835L30.0003 60L0 43.3835V31.4274H6.98909V36.5267H5.46283V40.2479L30.0003 53.8442L54.5372 40.2479V36.5267H53.0109V31.4274H60V43.3835Z" fill="#F68A0A"/>
<path d="M36.5839 24.3815H30.9688V29.7733H36.5839V24.3815Z" fill="#F68A0A"/>
<path d="M36.5839 31.2971H30.9688V36.689H36.5839V31.2971Z" fill="#F68A0A"/>
<path fill-rule="evenodd" clip-rule="evenodd" d="M30 11.6476L46.2261 20.6432V43.0162L51.4832 40.1017V23.3928L54.4073 25.0137L59.5927 22.1392L30 5.58087L13.7638 14.2551V10.6214L8.39103 13.6V17.7126L0.407227 22.1392L5.59205 25.0137L8.51614 23.3928V40.1017L13.7732 43.0162V20.6432L30 11.6476Z" fill="#0E121D"/>
<path d="M58.9941 50L41 60H58.0471L62.7824 56L202 50H58.9941Z" fill="#F68A0A"/>
<path d="M66 44.7457V13.2967H73.5094V25.8848H77.2425L83.1024 13.2967H91.0459L83.2326 29.106L91.3932 44.7457H83.4497L77.2859 32.4543H73.5094V44.7457H66Z" fill="#0E121D"/>
<path d="M106.738 45C104.51 45 102.542 44.7881 100.835 44.3642C99.1562 43.9404 97.7382 43.1634 96.5807 42.0331C95.4521 40.9029 94.5984 39.2923 94.0196 37.2013C93.4698 35.1104 93.1949 32.3837 93.1949 29.0212C93.1949 25.687 93.4843 22.9744 94.0631 20.8834C94.6418 18.7642 95.4955 17.1395 96.6241 16.0093C97.7527 14.879 99.1562 14.102 100.835 13.6781C102.542 13.226 104.51 13 106.738 13C108.995 13 110.963 13.226 112.641 13.6781C114.349 14.102 115.767 14.879 116.895 16.0093C118.024 17.1395 118.863 18.7642 119.413 20.8834C119.992 22.9744 120.281 25.687 120.281 29.0212C120.281 32.3837 119.992 35.1104 119.413 37.2013C118.863 39.2923 118.009 40.9029 116.852 42.0331C115.723 43.1634 114.32 43.9404 112.641 44.3642C110.963 44.7881 108.995 45 106.738 45ZM106.738 38.4305C107.924 38.4305 108.908 38.3033 109.69 38.049C110.471 37.7664 111.079 37.3002 111.513 36.6503C111.976 35.9722 112.294 35.0256 112.468 33.8106C112.67 32.5673 112.772 30.9709 112.772 29.0212C112.772 27.015 112.67 25.3903 112.468 24.147C112.294 22.9038 111.976 21.9572 111.513 21.3073C111.079 20.6291 110.471 20.177 109.69 19.951C108.908 19.6967 107.924 19.5695 106.738 19.5695C105.58 19.5695 104.611 19.6967 103.83 19.951C103.048 20.177 102.426 20.6291 101.963 21.3073C101.529 21.9572 101.211 22.9038 101.008 24.147C100.806 25.3903 100.704 27.015 100.704 29.0212C100.704 30.9709 100.791 32.5673 100.965 33.8106C101.167 35.0256 101.486 35.9722 101.92 36.6503C102.383 37.3002 103.005 37.7664 103.786 38.049C104.568 38.3033 105.551 38.4305 106.738 38.4305Z" fill="#0E121D"/>
<path d="M130.969 44.7457V19.8662H122.504V13.2967H146.899V19.8662H138.435V44.7457H130.969Z" fill="#0E121D"/>
<path d="M145.855 44.7457L155.665 13.2967H165.041L174.851 44.7457H167.081L165.432 39.0238H155.187L153.581 44.7457H145.855ZM156.924 32.4543H163.695L160.309 19.5695L156.924 32.4543Z" fill="#0E121D"/>
<path d="M177.909 44.7457V13.2967H191.452C192.812 13.2967 194.056 13.4662 195.185 13.8053C196.343 14.1161 197.341 14.6671 198.18 15.4583C199.048 16.2212 199.714 17.2667 200.177 18.5947C200.669 19.9227 200.915 21.604 200.915 23.6384C200.915 25.023 200.785 26.2097 200.524 27.1987C200.264 28.1594 199.916 28.9788 199.482 29.657C199.048 30.3068 198.542 30.8437 197.963 31.2675C197.413 31.6914 196.835 32.0587 196.227 32.3695L202 44.7457H194.36L189.542 33.5563C189.253 33.5563 188.92 33.5563 188.544 33.5563C188.197 33.528 187.849 33.5139 187.502 33.5139C187.155 33.5139 186.793 33.5139 186.417 33.5139C186.07 33.5139 185.737 33.5139 185.418 33.5139V44.7457H177.909ZM185.418 27.7073H190.106C190.627 27.7073 191.09 27.6508 191.495 27.5377C191.901 27.3965 192.248 27.1704 192.537 26.8596C192.827 26.5205 193.044 26.0967 193.188 25.5881C193.333 25.0795 193.405 24.4437 193.405 23.6808C193.405 22.9179 193.333 22.2962 193.188 21.8159C193.044 21.3073 192.827 20.9258 192.537 20.6715C192.248 20.389 191.901 20.1912 191.495 20.0781C191.09 19.9369 190.627 19.8662 190.106 19.8662H185.418V27.7073Z" fill="#0E121D"/>
</svg>
